<?xml version="1.0" encoding="utf-8"?>
<!-- Generator: Adobe Illustrator 28.2.0, SVG Export Plug-In . SVG Version: 6.00 Build 0)  -->
<svg version="1.1" xmlns="http://www.w3.org/2000/svg" xmlns:xlink="http://www.w3.org/1999/xlink" x="0px" y="0px"
	 viewBox="0 0 2200 2200" style="enable-background:new 0 0 2200 2200;" xml:space="preserve">
<style type="text/css">
	.st0{fill:#FFFFFF;}
	.st1{fill:#1653BF;}
	.st2{fill:#131419;}
</style>
<g id="background">
	<rect class="st0" width="2200" height="2200"/>
</g>
<g id="objects">
	<g>
		<path class="st1" d="M1395.49,990.4c-9.13,25.59-25.01,79.81-48.17,192.05c-31.36,151.92-132.85,330.01-172.45,395.57
			c-4.86,8.04-11.64,14.52-19.57,18.98c-7.92,4.46-16.97,6.92-26.37,6.92c-28.68,0-52.3-22.54-53.62-51.19l-13.03-279.87
			c-1.63-34.97-30.46-62.49-65.46-62.49h-79.39c-79.29,0-147.54-56.02-162.98-133.79c-13.43-67.61,16.28-136.49,74.66-173.12
			l95.71-60.05c19.48-12.22,42.09-18.48,65.08-18.03l197.54,3.87c21.32,0.42,40.95,11.73,52,29.97l51.49,85.03
			c9.39,15.5,25.86,24.07,42.75,24.07c8.82,0,17.75-2.34,25.84-7.24c3.91-2.37,8.34-3.57,12.78-3.57c3.1,0,6.2,0.58,9.15,1.76
			C1393.71,964.18,1399.93,977.94,1395.49,990.4z"/>
		<path class="st1" d="M1700.64,951.36h-115.46c-30,0-58.71-12.22-79.51-33.84l-128.3-133.37c-18.93-19.68-44.49-31.63-71.71-33.56
			l-159.03-11.27c-52.39-3.71-86.49-56.76-68.11-105.97l58.76-157.31c8.38-22.42,9.24-46.97,2.44-69.93l-25.63-86.54
			C1426.33,374.31,1668.77,631.83,1700.64,951.36z"/>
		<path class="st1" d="M938.23,1675.91l-25.9,57.36c-302-32.62-547.58-253.46-617.04-542.82c17.74,4.92,48.85,13.59,73.82,20.56
			c24.23,6.77,44.12,24.12,54.11,47.21l21.42,49.5c8.77,20.27,25.23,36.24,45.75,44.39l58.01,23.04
			c17.84,7.08,32.69,20.11,42.05,36.88l29.37,52.64c12.84,23.02,35.83,38.62,61.98,42.05l196.79,25.82
			c28.35,3.72,50.79,25.77,55.03,54.04l8.41,56.22C943.87,1655,943.32,1664.67,938.23,1675.91z"/>
		<path class="st1" d="M1019.82,309.43v96.02c0,14.04-3.7,27.82-10.72,39.98l-17.67,30.54l-50.81,87.87
			c-5.87,10.14-16.67,16.32-28.3,16.32c-0.61,0-1.24-0.01-1.85-0.05c-16.63-0.94-29.89-14.23-30.8-30.87l-1.88-34.56
			c-1.13-20.68-15.22-37.2-33.51-42.84c-7.4-2.27-15.49-2.77-23.68-1.04l-49.98,10.49c-14.81,3.11-27.25,13.11-33.48,26.86
			c-0.15,0.32-0.29,0.63-0.42,0.95l-29.52,69.1c-6.27,14.67-19.48,25.21-35.18,28.05L607.5,618c-19.84,3.6-35.24,19.36-38.4,39.27
			l-7.03,44.27c-2.21,13.93-10.5,26.15-22.63,33.37l-155.72,92.64l-36.87,21.94l-57.68,34.31
			c64.8-327.81,353.9-574.98,700.73-574.98C999.92,308.81,1009.9,309.02,1019.82,309.43z"/>
		<path class="st2" d="M2066.13,1702.54c-8.14-34.98-16.21-62.07-21.64-78.86l0,0l2.26-0.77c5.08-1.73,7.8-7.26,6.06-12.34
			l-174.74-512.41c-0.85-2.5-2.27-4.69-4.07-6.45v-68.58c0-116.32-22.24-229.39-66.11-336.06
			c-42.37-103.02-103.19-196.15-180.76-276.79c-77.43-80.49-167.97-144.82-269.09-191.2c-104.38-47.87-215.79-74.55-331.14-79.31
			c-12.3-0.51-24.75-0.76-37.02-0.76c-104.97,0-207.7,18.22-305.34,54.15C590.22,227.86,503,278.18,425.33,342.69
			c-77.05,64-142.24,139.9-193.74,225.59c-52.58,87.48-89.25,182.49-109,282.41c-11.16,56.41-16.81,114.42-16.81,172.42
			c0,122.8,24.7,241.67,73.42,353.31c30.04,68.83,68.27,132.86,114.19,191.43c-17.72,21.47-28.37,48.99-28.37,79
			c0,68.57,55.59,124.16,124.16,124.16s124.16-55.59,124.16-124.16c0-68.57-55.59-124.16-124.16-124.16
			c-21.94,0-42.54,5.7-60.42,15.68c-43.15-55.22-79.1-115.55-107.38-180.35c-46.17-105.8-69.58-218.48-69.58-334.9
			c0-55.01,5.36-110.01,15.94-163.5c18.72-94.69,53.47-184.73,103.3-267.64c48.83-81.25,110.64-153.21,183.71-213.9
			c73.63-61.16,156.3-108.85,245.72-141.76c92.53-34.05,189.92-51.32,289.45-51.32c11.64,0,23.46,0.24,35.13,0.72
			c109.34,4.51,214.93,29.79,313.85,75.16c95.86,43.96,181.69,104.95,255.11,181.27C1744.89,599.04,1828,805.37,1828,1023.12v69.35
			c-1.7,1.73-3.03,3.84-3.85,6.23l-174.55,511.86c-1.73,5.09,0.98,10.61,6.06,12.34l2.26,0.77l0,0
			c-5.42,16.79-13.5,43.89-21.64,78.87c-12.82,55.1-28.09,140.82-28.09,236.21v2.78c0,54.71,44.44,99.22,99.06,99.22h31.87
			c0.6,0.81,1.25,1.59,1.96,2.31c3.7,3.7,8.81,5.99,14.46,5.99h12.27c5.94,7.3,15,11.96,25.14,11.96c17.9,0,32.4-14.5,32.4-32.4
			c0-17.9-14.5-32.4-32.4-32.4c-10.14,0-19.2,4.66-25.14,11.96h-12.27c-6.56,0-12.39,3.1-16.13,7.91h-32.16
			c-41.01,0-74.38-33.44-74.38-74.54v-2.78c0-92.85,14.87-176.4,27.34-230.14c7.87-33.91,15.8-60.52,21.09-76.96
			c5.02,1.57,10.4-1.13,12.1-6.14l35-102.65c3.37-7.82,15.18-33.64,34.24-58.9c12.75-16.89,26.19-30.2,39.95-39.57
			c15.85-10.78,32.21-16.26,48.6-16.26c16.4,0,32.75,5.47,48.6,16.26c13.76,9.37,27.2,22.67,39.95,39.57
			c19.08,25.27,30.89,51.1,34.24,58.9l35.01,102.65c1.7,5,7.08,7.71,12.09,6.14c5.29,16.44,13.22,43.05,21.09,76.96
			c12.47,53.74,27.34,137.29,27.34,230.14v2.78c0,41.1-33.37,74.54-74.38,74.54H1963c-3.74-4.81-9.56-7.91-16.13-7.91h-12.27
			c-5.94-7.3-15-11.96-25.14-11.96c-17.9,0-32.4,14.5-32.4,32.4c0,17.9,14.5,32.4,32.4,32.4c10.15,0,19.2-4.66,25.14-11.96h12.27
			c5.65,0,10.75-2.29,14.46-5.99c0.71-0.71,1.36-1.49,1.96-2.31h31.87c54.62,0,99.06-44.51,99.06-99.22v-2.78
			C2094.23,1843.36,2078.95,1757.65,2066.13,1702.54z M1851.22,1361.85c-29.37,0-54.94,10.41-76.65,25.68l76.65-224.76l76.64,224.76
			C1906.15,1372.27,1880.58,1361.85,1851.22,1361.85z"/>
		<circle class="st0" cx="389.17" cy="1646.86" r="63.02"/>
	</g>
</g>
</svg>
